<svg version="1.1" xmlns="http://www.w3.org/2000/svg" xmlns:xlink="http://www.w3.org/1999/xlink" width="788" height="540"><defs/><g><text fill="#eeeeee" stroke="none" font-family="Arial" font-size="24px" font-style="normal" font-weight="normal" text-decoration="none" x="0" y="0">UNREGISTERED</text><text fill="#eeeeee" stroke="none" font-family="Arial" font-size="24px" font-style="normal" font-weight="normal" text-decoration="none" x="0" y="30">UNREGISTERED</text><text fill="#eeeeee" stroke="none" font-family="Arial" font-size="24px" font-style="normal" font-weight="normal" text-decoration="none" x="0" y="60">UNREGISTERED</text><text fill="#eeeeee" stroke="none" font-family="Arial" font-size="24px" font-style="normal" font-weight="normal" text-decoration="none" x="0" y="90">UNREGISTERED</text><text fill="#eeeeee" stroke="none" font-family="Arial" font-size="24px" font-style="normal" font-weight="normal" text-decoration="none" x="0" y="120">UNREGISTERED</text><text fill="#eeeeee" stroke="none" font-family="Arial" font-size="24px" font-style="normal" font-weight="normal" text-decoration="none" x="0" y="150">UNREGISTERED</text><text fill="#eeeeee" stroke="none" font-family="Arial" font-size="24px" font-style="normal" font-weight="normal" text-decoration="none" x="0" y="180">UNREGISTERED</text><text fill="#eeeeee" stroke="none" font-family="Arial" font-size="24px" font-style="normal" font-weight="normal" text-decoration="none" x="0" y="210">UNREGISTERED</text><text fill="#eeeeee" stroke="none" font-family="Arial" font-size="24px" font-style="normal" font-weight="normal" text-decoration="none" x="0" y="240">UNREGISTERED</text><text fill="#eeeeee" stroke="none" font-family="Arial" font-size="24px" font-style="normal" font-weight="normal" text-decoration="none" x="0" y="270">UNREGISTERED</text><text fill="#eeeeee" stroke="none" font-family="Arial" font-size="24px" font-style="normal" font-weight="normal" text-decoration="none" x="0" y="300">UNREGISTERED</text><text fill="#eeeeee" stroke="none" font-family="Arial" font-size="24px" font-style="normal" font-weight="normal" text-decoration="none" x="0" y="330">UNREGISTERED</text><text fill="#eeeeee" stroke="none" font-family="Arial" font-size="24px" font-style="normal" font-weight="normal" text-decoration="none" x="0" y="360">UNREGISTERED</text><text fill="#eeeeee" stroke="none" font-family="Arial" font-size="24px" font-style="normal" font-weight="normal" text-decoration="none" x="0" y="390">UNREGISTERED</text><text fill="#eeeeee" stroke="none" font-family="Arial" font-size="24px" font-style="normal" font-weight="normal" text-decoration="none" x="0" y="420">UNREGISTERED</text><text fill="#eeeeee" stroke="none" font-family="Arial" font-size="24px" font-style="normal" font-weight="normal" text-decoration="none" x="0" y="450">UNREGISTERED</text><text fill="#eeeeee" stroke="none" font-family="Arial" font-size="24px" font-style="normal" font-weight="normal" text-decoration="none" x="0" y="480">UNREGISTERED</text><text fill="#eeeeee" stroke="none" font-family="Arial" font-size="24px" font-style="normal" font-weight="normal" text-decoration="none" x="0" y="510">UNREGISTERED</text><text fill="#eeeeee" stroke="none" font-family="Arial" font-size="24px" font-style="normal" font-weight="normal" text-decoration="none" x="200" y="0">UNREGISTERED</text><text fill="#eeeeee" stroke="none" font-family="Arial" font-size="24px" font-style="normal" font-weight="normal" text-decoration="none" x="200" y="30">UNREGISTERED</text><text fill="#eeeeee" stroke="none" font-family="Arial" font-size="24px" font-style="normal" font-weight="normal" text-decoration="none" x="200" y="60">UNREGISTERED</text><text fill="#eeeeee" stroke="none" font-family="Arial" font-size="24px" font-style="normal" font-weight="normal" text-decoration="none" x="200" y="90">UNREGISTERED</text><text fill="#eeeeee" stroke="none" font-family="Arial" font-size="24px" font-style="normal" font-weight="normal" text-decoration="none" x="200" y="120">UNREGISTERED</text><text fill="#eeeeee" stroke="none" font-family="Arial" font-size="24px" font-style="normal" font-weight="normal" text-decoration="none" x="200" y="150">UNREGISTERED</text><text fill="#eeeeee" stroke="none" font-family="Arial" font-size="24px" font-style="normal" font-weight="normal" text-decoration="none" x="200" y="180">UNREGISTERED</text><text fill="#eeeeee" stroke="none" font-family="Arial" font-size="24px" font-style="normal" font-weight="normal" text-decoration="none" x="200" y="210">UNREGISTERED</text><text fill="#eeeeee" stroke="none" font-family="Arial" font-size="24px" font-style="normal" font-weight="normal" text-decoration="none" x="200" y="240">UNREGISTERED</text><text fill="#eeeeee" stroke="none" font-family="Arial" font-size="24px" font-style="normal" font-weight="normal" text-decoration="none" x="200" y="270">UNREGISTERED</text><text fill="#eeeeee" stroke="none" font-family="Arial" font-size="24px" font-style="normal" font-weight="normal" text-decoration="none" x="200" y="300">UNREGISTERED</text><text fill="#eeeeee" stroke="none" font-family="Arial" font-size="24px" font-style="normal" font-weight="normal" text-decoration="none" x="200" y="330">UNREGISTERED</text><text fill="#eeeeee" stroke="none" font-family="Arial" font-size="24px" font-style="normal" font-weight="normal" text-decoration="none" x="200" y="360">UNREGISTERED</text><text fill="#eeeeee" stroke="none" font-family="Arial" font-size="24px" font-style="normal" font-weight="normal" text-decoration="none" x="200" y="390">UNREGISTERED</text><text fill="#eeeeee" stroke="none" font-family="Arial" font-size="24px" font-style="normal" font-weight="normal" text-decoration="none" x="200" y="420">UNREGISTERED</text><text fill="#eeeeee" stroke="none" font-family="Arial" font-size="24px" font-style="normal" font-weight="normal" text-decoration="none" x="200" y="450">UNREGISTERED</text><text fill="#eeeeee" stroke="none" font-family="Arial" font-size="24px" font-style="normal" font-weight="normal" text-decoration="none" x="200" y="480">UNREGISTERED</text><text fill="#eeeeee" stroke="none" font-family="Arial" font-size="24px" font-style="normal" font-weight="normal" text-decoration="none" x="200" y="510">UNREGISTERED</text><text fill="#eeeeee" stroke="none" font-family="Arial" font-size="24px" font-style="normal" font-weight="normal" text-decoration="none" x="400" y="0">UNREGISTERED</text><text fill="#eeeeee" stroke="none" font-family="Arial" font-size="24px" font-style="normal" font-weight="normal" text-decoration="none" x="400" y="30">UNREGISTERED</text><text fill="#eeeeee" stroke="none" font-family="Arial" font-size="24px" font-style="normal" font-weight="normal" text-decoration="none" x="400" y="60">UNREGISTERED</text><text fill="#eeeeee" stroke="none" font-family="Arial" font-size="24px" font-style="normal" font-weight="normal" text-decoration="none" x="400" y="90">UNREGISTERED</text><text fill="#eeeeee" stroke="none" font-family="Arial" font-size="24px" font-style="normal" font-weight="normal" text-decoration="none" x="400" y="120">UNREGISTERED</text><text fill="#eeeeee" stroke="none" font-family="Arial" font-size="24px" font-style="normal" font-weight="normal" text-decoration="none" x="400" y="150">UNREGISTERED</text><text fill="#eeeeee" stroke="none" font-family="Arial" font-size="24px" font-style="normal" font-weight="normal" text-decoration="none" x="400" y="180">UNREGISTERED</text><text fill="#eeeeee" stroke="none" font-family="Arial" font-size="24px" font-style="normal" font-weight="normal" text-decoration="none" x="400" y="210">UNREGISTERED</text><text fill="#eeeeee" stroke="none" font-family="Arial" font-size="24px" font-style="normal" font-weight="normal" text-decoration="none" x="400" y="240">UNREGISTERED</text><text fill="#eeeeee" stroke="none" font-family="Arial" font-size="24px" font-style="normal" font-weight="normal" text-decoration="none" x="400" y="270">UNREGISTERED</text><text fill="#eeeeee" stroke="none" font-family="Arial" font-size="24px" font-style="normal" font-weight="normal" text-decoration="none" x="400" y="300">UNREGISTERED</text><text fill="#eeeeee" stroke="none" font-family="Arial" font-size="24px" font-style="normal" font-weight="normal" text-decoration="none" x="400" y="330">UNREGISTERED</text><text fill="#eeeeee" stroke="none" font-family="Arial" font-size="24px" font-style="normal" font-weight="normal" text-decoration="none" x="400" y="360">UNREGISTERED</text><text fill="#eeeeee" stroke="none" font-family="Arial" font-size="24px" font-style="normal" font-weight="normal" text-decoration="none" x="400" y="390">UNREGISTERED</text><text fill="#eeeeee" stroke="none" font-family="Arial" font-size="24px" font-style="normal" font-weight="normal" text-decoration="none" x="400" y="420">UNREGISTERED</text><text fill="#eeeeee" stroke="none" font-family="Arial" font-size="24px" font-style="normal" font-weight="normal" text-decoration="none" x="400" y="450">UNREGISTERED</text><text fill="#eeeeee" stroke="none" font-family="Arial" font-size="24px" font-style="normal" font-weight="normal" text-decoration="none" x="400" y="480">UNREGISTERED</text><text fill="#eeeeee" stroke="none" font-family="Arial" font-size="24px" font-style="normal" font-weight="normal" text-decoration="none" x="400" y="510">UNREGISTERED</text><text fill="#eeeeee" stroke="none" font-family="Arial" font-size="24px" font-style="normal" font-weight="normal" text-decoration="none" x="600" y="0">UNREGISTERED</text><text fill="#eeeeee" stroke="none" font-family="Arial" font-size="24px" font-style="normal" font-weight="normal" text-decoration="none" x="600" y="30">UNREGISTERED</text><text fill="#eeeeee" stroke="none" font-family="Arial" font-size="24px" font-style="normal" font-weight="normal" text-decoration="none" x="600" y="60">UNREGISTERED</text><text fill="#eeeeee" stroke="none" font-family="Arial" font-size="24px" font-style="normal" font-weight="normal" text-decoration="none" x="600" y="90">UNREGISTERED</text><text fill="#eeeeee" stroke="none" font-family="Arial" font-size="24px" font-style="normal" font-weight="normal" text-decoration="none" x="600" y="120">UNREGISTERED</text><text fill="#eeeeee" stroke="none" font-family="Arial" font-size="24px" font-style="normal" font-weight="normal" text-decoration="none" x="600" y="150">UNREGISTERED</text><text fill="#eeeeee" stroke="none" font-family="Arial" font-size="24px" font-style="normal" font-weight="normal" text-decoration="none" x="600" y="180">UNREGISTERED</text><text fill="#eeeeee" stroke="none" font-family="Arial" font-size="24px" font-style="normal" font-weight="normal" text-decoration="none" x="600" y="210">UNREGISTERED</text><text fill="#eeeeee" stroke="none" font-family="Arial" font-size="24px" font-style="normal" font-weight="normal" text-decoration="none" x="600" y="240">UNREGISTERED</text><text fill="#eeeeee" stroke="none" font-family="Arial" font-size="24px" font-style="normal" font-weight="normal" text-decoration="none" x="600" y="270">UNREGISTERED</text><text fill="#eeeeee" stroke="none" font-family="Arial" font-size="24px" font-style="normal" font-weight="normal" text-decoration="none" x="600" y="300">UNREGISTERED</text><text fill="#eeeeee" stroke="none" font-family="Arial" font-size="24px" font-style="normal" font-weight="normal" text-decoration="none" x="600" y="330">UNREGISTERED</text><text fill="#eeeeee" stroke="none" font-family="Arial" font-size="24px" font-style="normal" font-weight="normal" text-decoration="none" x="600" y="360">UNREGISTERED</text><text fill="#eeeeee" stroke="none" font-family="Arial" font-size="24px" font-style="normal" font-weight="normal" text-decoration="none" x="600" y="390">UNREGISTERED</text><text fill="#eeeeee" stroke="none" font-family="Arial" font-size="24px" font-style="normal" font-weight="normal" text-decoration="none" x="600" y="420">UNREGISTERED</text><text fill="#eeeeee" stroke="none" font-family="Arial" font-size="24px" font-style="normal" font-weight="normal" text-decoration="none" x="600" y="450">UNREGISTERED</text><text fill="#eeeeee" stroke="none" font-family="Arial" font-size="24px" font-style="normal" font-weight="normal" text-decoration="none" x="600" y="480">UNREGISTERED</text><text fill="#eeeeee" stroke="none" font-family="Arial" font-size="24px" font-style="normal" font-weight="normal" text-decoration="none" x="600" y="510">UNREGISTERED</text><g transform="translate(-270,-254) scale(1,1)"><rect fill="#C0C0C0" stroke="none" x="287" y="271" width="152" height="104" opacity="0.2"/></g><g transform="translate(-270,-254) scale(1,1)"><rect fill="#ffffd8" stroke="none" x="280" y="264" width="152" height="104"/></g><g transform="translate(-270,-254) scale(1,1)"><path fill="none" stroke="#000000" d="M 280 264 L 432 264 L 432 368 L 280 368 L 280 264 Z Z" stroke-miterlimit="10"/></g><g transform="translate(-270,-254) scale(1,1)"><rect fill="#ffffd8" stroke="none" x="280" y="264" width="152" height="104"/></g><g transform="translate(-270,-254) scale(1,1)"><path fill="none" stroke="#000000" d="M 280 264 L 432 264 L 432 368 L 280 368 L 280 264 Z Z" stroke-miterlimit="10"/></g><g transform="translate(-270,-254) scale(1,1)"><g><path fill="none" stroke="none"/><text fill="#000000" stroke="none" font-family="Arial" font-size="13px" font-style="normal" font-weight="bold" text-decoration="none" x="335.408203125" y="283.5">Guests</text><path fill="none" stroke="#000000" d="M 378.035888671875 283.5 L 333.964111328125 283.5" stroke-miterlimit="10"/></g></g><g transform="translate(-270,-254) scale(1,1)"><rect fill="#C0C0C0" stroke="none" x="903" y="279" width="152" height="104" opacity="0.2"/></g><g transform="translate(-270,-254) scale(1,1)"><rect fill="#ffffd8" stroke="none" x="896" y="272" width="152" height="104"/></g><g transform="translate(-270,-254) scale(1,1)"><path fill="none" stroke="#000000" d="M 896 272 L 1048 272 L 1048 376 L 896 376 L 896 272 Z Z" stroke-miterlimit="10"/></g><g transform="translate(-270,-254) scale(1,1)"><rect fill="#ffffd8" stroke="none" x="896" y="272" width="152" height="104"/></g><g transform="translate(-270,-254) scale(1,1)"><path fill="none" stroke="#000000" d="M 896 272 L 1048 272 L 1048 376 L 896 376 L 896 272 Z Z" stroke-miterlimit="10"/></g><g transform="translate(-270,-254) scale(1,1)"><g><path fill="none" stroke="none"/><text fill="#000000" stroke="none" font-family="Arial" font-size="13px" font-style="normal" font-weight="bold" text-decoration="none" x="958.749267578125" y="291.5">Staff</text><path fill="none" stroke="#000000" d="M 986.444091796875 291.5 L 957.555908203125 291.5" stroke-miterlimit="10"/></g></g><g transform="translate(-270,-254) scale(1,1)"><rect fill="#C0C0C0" stroke="none" x="615" y="687" width="152" height="104" opacity="0.2"/></g><g transform="translate(-270,-254) scale(1,1)"><rect fill="#ffffd8" stroke="none" x="608" y="680" width="152" height="104"/></g><g transform="translate(-270,-254) scale(1,1)"><path fill="none" stroke="#000000" d="M 608 680 L 760 680 L 760 784 L 608 784 L 608 680 Z Z" stroke-miterlimit="10"/></g><g transform="translate(-270,-254) scale(1,1)"><rect fill="#ffffd8" stroke="none" x="608" y="680" width="152" height="104"/></g><g transform="translate(-270,-254) scale(1,1)"><path fill="none" stroke="#000000" d="M 608 680 L 760 680 L 760 784 L 608 784 L 608 680 Z Z" stroke-miterlimit="10"/></g><g transform="translate(-270,-254) scale(1,1)"><g><path fill="none" stroke="none"/><text fill="#000000" stroke="none" font-family="Arial" font-size="13px" font-style="normal" font-weight="bold" text-decoration="none" x="658.345947265625" y="699.5">Manager</text><path fill="none" stroke="#000000" d="M 710.72998046875 699.5 L 657.27001953125 699.5" stroke-miterlimit="10"/></g></g><g transform="translate(-270,-254) scale(1,1)"><rect fill="#C0C0C0" stroke="none" x="583" y="439" width="224" height="160" opacity="0.2"/></g><g transform="translate(-270,-254) scale(1,1)"><rect fill="#d8e5ff" stroke="none" x="576" y="432" width="224" height="160"/></g><g transform="translate(-270,-254) scale(1,1)"><path fill="none" stroke="#000000" d="M 576 432 L 800 432 L 800 592 L 576 592 L 576 432 Z Z" stroke-miterlimit="10"/></g><g transform="translate(-270,-254) scale(1,1)"><rect fill="#d8e5ff" stroke="none" x="576" y="432" width="224" height="160"/></g><g transform="translate(-270,-254) scale(1,1)"><path fill="none" stroke="#000000" d="M 576 432 L 800 432 L 800 592 L 576 592 L 576 432 Z Z" stroke-miterlimit="10"/></g><g transform="translate(-270,-254) scale(1,1)"><g><path fill="none" stroke="none"/><text fill="#000000" stroke="none" font-family="Arial" font-size="13px" font-style="normal" font-weight="bold" text-decoration="none" x="672.825927734375" y="451.5">Hotel</text><path fill="none" stroke="#000000" d="M 704.25 451.5 L 671.75 451.5" stroke-miterlimit="10"/></g></g><g transform="translate(-270,-254) scale(1,1)"><path fill="none" stroke="#000000" d="M 433 361 L 575 445" stroke-miterlimit="10"/></g><g transform="translate(-270,-254) scale(1,1)"><path fill="none" stroke="#000000" d="M 433 361 L 575 445" stroke-miterlimit="10"/></g><g transform="translate(-270,-254) scale(1,1)"><path fill="none" stroke="#000000" d="M 564.1099131504219 443.44886866815034 L 575 445 L 568.3963612242147 436.20273025769103" stroke-miterlimit="10"/></g><g transform="translate(-270,-254) scale(1,1)"><path fill="none" stroke="#000000" d="M 433 361 L 575 445" stroke-miterlimit="10"/></g><g transform="translate(-270,-254) scale(1,1)"><g><path fill="none" stroke="none"/><text fill="#000000" stroke="none" font-family="Arial" font-size="13px" font-style="normal" font-weight="normal" text-decoration="none" x="479.5" y="395.5">+Login</text></g></g><g transform="translate(-270,-254) scale(1,1)"><path fill="none" stroke="#000000" d="M 433 323 L 568 336 L 633 431" stroke-miterlimit="10"/></g><g transform="translate(-270,-254) scale(1,1)"><path fill="none" stroke="#000000" d="M 623.7871553981084 424.9897176155028 L 633 431 L 630.7354465389086 420.2356236770606" stroke-miterlimit="10"/></g><g transform="translate(-270,-254) scale(1,1)"><g><path fill="none" stroke="none"/><text fill="#000000" stroke="none" font-family="Arial" font-size="13px" font-style="normal" font-weight="normal" text-decoration="none" x="535.5" y="332.5">+Roomservice</text></g></g><g transform="translate(-270,-254) scale(1,1)"><path fill="none" stroke="#000000" d="M 895 343 L 824 360 L 760 431" stroke-miterlimit="10"/></g><g transform="translate(-270,-254) scale(1,1)"><path fill="none" stroke="#000000" d="M 763.6776237071645 420.6329809555253 L 760 431 L 769.9310621290266 426.26988319495024" stroke-miterlimit="10"/></g><g transform="translate(-270,-254) scale(1,1)"><g><path fill="none" stroke="none"/><text fill="#000000" stroke="none" font-family="Arial" font-size="13px" font-style="normal" font-weight="normal" text-decoration="none" x="751.5" y="377.5">+Absence</text></g></g><g transform="translate(-270,-254) scale(1,1)"><path fill="none" stroke="#000000" d="M 433 315 L 584 312 L 646 431" stroke-miterlimit="10"/></g><g transform="translate(-270,-254) scale(1,1)"><path fill="none" stroke="#000000" d="M 637.5710567810696 423.93226229886477 L 646 431 L 645.0374823477786 420.04219183553744" stroke-miterlimit="10"/></g><g transform="translate(-270,-254) scale(1,1)"><g><path fill="none" stroke="none"/><text fill="#000000" stroke="none" font-family="Arial" font-size="13px" font-style="normal" font-weight="normal" text-decoration="none" x="563.5" y="311.5">+RoomCart</text></g></g><g transform="translate(-270,-254) scale(1,1)"><path fill="none" stroke="#000000" d="M 433 331 L 544 352 L 615 431" stroke-miterlimit="10"/></g><g transform="translate(-270,-254) scale(1,1)"><path fill="none" stroke="#000000" d="M 605.0759369564937 426.25521626325167 L 615 431 L 611.3376964805323 420.62755896949545" stroke-miterlimit="10"/></g><g transform="translate(-270,-254) scale(1,1)"><g><path fill="none" stroke="none"/><text fill="#000000" stroke="none" font-family="Arial" font-size="13px" font-style="normal" font-weight="normal" text-decoration="none" x="528.5" y="347.5">+Catalog</text></g></g><g transform="translate(-270,-254) scale(1,1)"><path fill="none" stroke="#000000" d="M 433 346 L 512 376 L 583 431" stroke-miterlimit="10"/></g><g transform="translate(-270,-254) scale(1,1)"><path fill="none" stroke="#000000" d="M 572.3880001306812 428.104234337247 L 583 431 L 577.5437984673138 421.4485673935942" stroke-miterlimit="10"/></g><g transform="translate(-270,-254) scale(1,1)"><g><path fill="none" stroke="none"/><text fill="#000000" stroke="none" font-family="Arial" font-size="13px" font-style="normal" font-weight="normal" text-decoration="none" x="493.5" y="370.5">+Booking</text></g></g><g transform="translate(-270,-254) scale(1,1)"><path fill="none" stroke="#000000" d="M 575 460 L 480 416 L 422 369" stroke-miterlimit="10"/></g><g transform="translate(-270,-254) scale(1,1)"><path fill="none" stroke="#000000" d="M 432.5459586286248 372.12773985544413 L 422 369 L 427.2454727988414 378.66876492198537" stroke-miterlimit="10"/></g><g transform="translate(-270,-254) scale(1,1)"><g><path fill="none" stroke="none"/><text fill="#000000" stroke="none" font-family="Arial" font-size="13px" font-style="normal" font-weight="normal" text-decoration="none" x="396.5" y="433.5">+Authentication response</text></g></g><g transform="translate(-270,-254) scale(1,1)"><path fill="none" stroke="#000000" d="M 575 477 L 480 448 L 406 369" stroke-miterlimit="10"/></g><g transform="translate(-270,-254) scale(1,1)"><path fill="none" stroke="#000000" d="M 416.0197599675849 373.53920810185906 L 406 369 L 409.8753353888993 379.29474504898224" stroke-miterlimit="10"/></g><g transform="translate(-270,-254) scale(1,1)"><g><path fill="none" stroke="none"/><text fill="#000000" stroke="none" font-family="Arial" font-size="13px" font-style="normal" font-weight="normal" text-decoration="none" x="446.5" y="468.5">+Rooms</text></g></g><g transform="translate(-270,-254) scale(1,1)"><path fill="none" stroke="#000000" d="M 575 496 L 456 480 L 388 369" stroke-miterlimit="10"/></g><g transform="translate(-270,-254) scale(1,1)"><path fill="none" stroke="#000000" d="M 396.8983022638883 375.4668552496929 L 388 369 L 389.71929267183333 379.8648070718527" stroke-miterlimit="10"/></g><g transform="translate(-270,-254) scale(1,1)"><g><path fill="none" stroke="none"/><text fill="#000000" stroke="none" font-family="Arial" font-size="13px" font-style="normal" font-weight="normal" text-decoration="none" x="404.5" y="493.5">+BookingInfo</text></g></g><g transform="translate(-270,-254) scale(1,1)"><path fill="none" stroke="#000000" d="M 575 508 L 432 504 L 377 369" stroke-miterlimit="10"/></g><g transform="translate(-270,-254) scale(1,1)"><path fill="none" stroke="#000000" d="M 384.7327478227216 376.82333759403195 L 377 369 L 376.9359433584003 379.99981348690363" stroke-miterlimit="10"/></g><g transform="translate(-270,-254) scale(1,1)"><g><path fill="none" stroke="none"/><text fill="#000000" stroke="none" font-family="Arial" font-size="13px" font-style="normal" font-weight="normal" text-decoration="none" x="382.5" y="515.5">+RoomserviceCatalog</text></g></g><g transform="translate(-270,-254) scale(1,1)"><path fill="none" stroke="#000000" d="M 575 525 L 408 544 L 368 369" stroke-miterlimit="10"/></g><g transform="translate(-270,-254) scale(1,1)"><path fill="none" stroke="#000000" d="M 374.3681802008984 377.96918507607495 L 368 369 L 366.1608118148634 379.84515499288295" stroke-miterlimit="10"/></g><g transform="translate(-270,-254) scale(1,1)"><g><path fill="none" stroke="none"/><text fill="#000000" stroke="none" font-family="Arial" font-size="13px" font-style="normal" font-weight="normal" text-decoration="none" x="380.455322265625" y="553.5">+Bill</text></g></g><g transform="translate(-270,-254) scale(1,1)"><path fill="none" stroke="#000000" d="M 575 532 L 368 568 L 359 369" stroke-miterlimit="10"/></g><g transform="translate(-270,-254) scale(1,1)"><path fill="none" stroke="#000000" d="M 363.6643683973871 378.9621115961154 L 359 369 L 355.2539298591943 379.342483188295" stroke-miterlimit="10"/></g><g transform="translate(-270,-254) scale(1,1)"><g><path fill="none" stroke="none"/><text fill="#000000" stroke="none" font-family="Arial" font-size="13px" font-style="normal" font-weight="normal" text-decoration="none" x="325.5" y="566.5">+Cart</text></g></g><g transform="translate(-270,-254) scale(1,1)"><path fill="none" stroke="#000000" d="M 801 437 L 895 375" stroke-miterlimit="10"/></g><g transform="translate(-270,-254) scale(1,1)"><path fill="none" stroke="#000000" d="M 888.8342150406248 384.1095057953076 L 895 375 L 884.1987383227677 377.081524965008" stroke-miterlimit="10"/></g><g transform="translate(-270,-254) scale(1,1)"><g><path fill="none" stroke="none"/><text fill="#000000" stroke="none" font-family="Arial" font-size="13px" font-style="normal" font-weight="normal" text-decoration="none" x="812.5" y="399.5">+Rooster</text></g></g><g transform="translate(-270,-254) scale(1,1)"><path fill="none" stroke="#000000" d="M 687 593 L 685 679" stroke-miterlimit="10"/></g><g transform="translate(-270,-254) scale(1,1)"><path fill="none" stroke="#000000" d="M 681.0278974963754 668.7422028826506 L 685 679 L 689.4446572858326 668.9379414824056" stroke-miterlimit="10"/></g><g transform="translate(-270,-254) scale(1,1)"><g><path fill="none" stroke="none"/><text fill="#000000" stroke="none" font-family="Arial" font-size="13px" font-style="normal" font-weight="normal" text-decoration="none" x="685.5" y="644.5">+Staff</text></g></g><g transform="translate(-270,-254) scale(1,1)"><path fill="none" stroke="#000000" d="M 671 593 L 664 626 L 674 679" stroke-miterlimit="10"/></g><g transform="translate(-270,-254) scale(1,1)"><path fill="none" stroke="#000000" d="M 667.9792285313141 669.7940067932972 L 674 679 L 676.2522918905346 668.2330514425009" stroke-miterlimit="10"/></g><g transform="translate(-270,-254) scale(1,1)"><g><path fill="none" stroke="none"/><text fill="#000000" stroke="none" font-family="Arial" font-size="13px" font-style="normal" font-weight="normal" text-decoration="none" x="658.5" y="656.5">+Guests</text></g></g><g transform="translate(-270,-254) scale(1,1)"><path fill="none" stroke="#000000" d="M 653 593 L 640 624 L 662 679" stroke-miterlimit="10"/></g><g transform="translate(-270,-254) scale(1,1)"><path fill="none" stroke="#000000" d="M 654.3172381947317 671.1275689241817 L 662 679 L 662.1341164273886 668.0008176311189" stroke-miterlimit="10"/></g><g transform="translate(-270,-254) scale(1,1)"><g><path fill="none" stroke="none"/><text fill="#000000" stroke="none" font-family="Arial" font-size="13px" font-style="normal" font-weight="normal" text-decoration="none" x="622.5" y="624.5">+Bookings</text></g></g><g transform="translate(-270,-254) scale(1,1)"><path fill="none" stroke="#000000" d="M 634 593 L 608 632 L 644 679" stroke-miterlimit="10"/></g><g transform="translate(-270,-254) scale(1,1)"><path fill="none" stroke="#000000" d="M 634.4784682508894 673.4917849396853 L 644 679 L 641.1621565543032 668.3723641115384" stroke-miterlimit="10"/></g><g transform="translate(-270,-254) scale(1,1)"><g><path fill="none" stroke="none"/><text fill="#000000" stroke="none" font-family="Arial" font-size="13px" font-style="normal" font-weight="normal" text-decoration="none" x="588.5" y="628.5">+Inventory</text></g></g><g transform="translate(-270,-254) scale(1,1)"><path fill="none" stroke="#000000" d="M 621 593 L 576 648 L 616 679" stroke-miterlimit="10"/></g><g transform="translate(-270,-254) scale(1,1)"><path fill="none" stroke="#000000" d="M 605.3886375196867 676.1018995339365 L 616 679 L 610.5459001246553 669.4473671404285" stroke-miterlimit="10"/></g><g transform="translate(-270,-254) scale(1,1)"><g><path fill="none" stroke="none"/><text fill="#000000" stroke="none" font-family="Arial" font-size="13px" font-style="normal" font-weight="normal" text-decoration="none" x="553.5" y="642.5">+Vacations</text></g></g><g transform="translate(-270,-254) scale(1,1)"><path fill="none" stroke="#000000" d="M 713 593 L 720 616 L 700 679" stroke-miterlimit="10"/></g><g transform="translate(-270,-254) scale(1,1)"><path fill="none" stroke="#000000" d="M 699.0628198153213 668.039995743548 L 700 679 L 707.0872068677907 670.5874202046494" stroke-miterlimit="10"/></g><g transform="translate(-270,-254) scale(1,1)"><g><path fill="none" stroke="none"/><text fill="#000000" stroke="none" font-family="Arial" font-size="13px" font-style="normal" font-weight="normal" text-decoration="none" x="704.5" y="626.5">+Statistics</text></g></g><g transform="translate(-270,-254) scale(1,1)"><path fill="none" stroke="#000000" d="M 734 593 L 760 640 L 728 679" stroke-miterlimit="10"/></g><g transform="translate(-270,-254) scale(1,1)"><path fill="none" stroke="#000000" d="M 731.192087401524 668.4733396549033 L 728 679 L 737.7006195610231 673.8136737344923" stroke-miterlimit="10"/></g><g transform="translate(-270,-254) scale(1,1)"><g><path fill="none" stroke="none"/><text fill="#000000" stroke="none" font-family="Arial" font-size="13px" font-style="normal" font-weight="normal" text-decoration="none" x="743.5" y="655.5">+Balance</text></g></g></g></svg>