<svg version="1.1" xmlns="http://www.w3.org/2000/svg" xmlns:xlink="http://www.w3.org/1999/xlink" width="800.30810546875" height="668"><defs/><g><text fill="#eeeeee" stroke="none" font-family="Arial" font-size="24px" font-style="normal" font-weight="normal" text-decoration="none" x="0" y="0">UNREGISTERED</text><text fill="#eeeeee" stroke="none" font-family="Arial" font-size="24px" font-style="normal" font-weight="normal" text-decoration="none" x="0" y="30">UNREGISTERED</text><text fill="#eeeeee" stroke="none" font-family="Arial" font-size="24px" font-style="normal" font-weight="normal" text-decoration="none" x="0" y="60">UNREGISTERED</text><text fill="#eeeeee" stroke="none" font-family="Arial" font-size="24px" font-style="normal" font-weight="normal" text-decoration="none" x="0" y="90">UNREGISTERED</text><text fill="#eeeeee" stroke="none" font-family="Arial" font-size="24px" font-style="normal" font-weight="normal" text-decoration="none" x="0" y="120">UNREGISTERED</text><text fill="#eeeeee" stroke="none" font-family="Arial" font-size="24px" font-style="normal" font-weight="normal" text-decoration="none" x="0" y="150">UNREGISTERED</text><text fill="#eeeeee" stroke="none" font-family="Arial" font-size="24px" font-style="normal" font-weight="normal" text-decoration="none" x="0" y="180">UNREGISTERED</text><text fill="#eeeeee" stroke="none" font-family="Arial" font-size="24px" font-style="normal" font-weight="normal" text-decoration="none" x="0" y="210">UNREGISTERED</text><text fill="#eeeeee" stroke="none" font-family="Arial" font-size="24px" font-style="normal" font-weight="normal" text-decoration="none" x="0" y="240">UNREGISTERED</text><text fill="#eeeeee" stroke="none" font-family="Arial" font-size="24px" font-style="normal" font-weight="normal" text-decoration="none" x="0" y="270">UNREGISTERED</text><text fill="#eeeeee" stroke="none" font-family="Arial" font-size="24px" font-style="normal" font-weight="normal" text-decoration="none" x="0" y="300">UNREGISTERED</text><text fill="#eeeeee" stroke="none" font-family="Arial" font-size="24px" font-style="normal" font-weight="normal" text-decoration="none" x="0" y="330">UNREGISTERED</text><text fill="#eeeeee" stroke="none" font-family="Arial" font-size="24px" font-style="normal" font-weight="normal" text-decoration="none" x="0" y="360">UNREGISTERED</text><text fill="#eeeeee" stroke="none" font-family="Arial" font-size="24px" font-style="normal" font-weight="normal" text-decoration="none" x="0" y="390">UNREGISTERED</text><text fill="#eeeeee" stroke="none" font-family="Arial" font-size="24px" font-style="normal" font-weight="normal" text-decoration="none" x="0" y="420">UNREGISTERED</text><text fill="#eeeeee" stroke="none" font-family="Arial" font-size="24px" font-style="normal" font-weight="normal" text-decoration="none" x="0" y="450">UNREGISTERED</text><text fill="#eeeeee" stroke="none" font-family="Arial" font-size="24px" font-style="normal" font-weight="normal" text-decoration="none" x="0" y="480">UNREGISTERED</text><text fill="#eeeeee" stroke="none" font-family="Arial" font-size="24px" font-style="normal" font-weight="normal" text-decoration="none" x="0" y="510">UNREGISTERED</text><text fill="#eeeeee" stroke="none" font-family="Arial" font-size="24px" font-style="normal" font-weight="normal" text-decoration="none" x="0" y="540">UNREGISTERED</text><text fill="#eeeeee" stroke="none" font-family="Arial" font-size="24px" font-style="normal" font-weight="normal" text-decoration="none" x="0" y="570">UNREGISTERED</text><text fill="#eeeeee" stroke="none" font-family="Arial" font-size="24px" font-style="normal" font-weight="normal" text-decoration="none" x="0" y="600">UNREGISTERED</text><text fill="#eeeeee" stroke="none" font-family="Arial" font-size="24px" font-style="normal" font-weight="normal" text-decoration="none" x="0" y="630">UNREGISTERED</text><text fill="#eeeeee" stroke="none" font-family="Arial" font-size="24px" font-style="normal" font-weight="normal" text-decoration="none" x="0" y="660">UNREGISTERED</text><text fill="#eeeeee" stroke="none" font-family="Arial" font-size="24px" font-style="normal" font-weight="normal" text-decoration="none" x="200" y="0">UNREGISTERED</text><text fill="#eeeeee" stroke="none" font-family="Arial" font-size="24px" font-style="normal" font-weight="normal" text-decoration="none" x="200" y="30">UNREGISTERED</text><text fill="#eeeeee" stroke="none" font-family="Arial" font-size="24px" font-style="normal" font-weight="normal" text-decoration="none" x="200" y="60">UNREGISTERED</text><text fill="#eeeeee" stroke="none" font-family="Arial" font-size="24px" font-style="normal" font-weight="normal" text-decoration="none" x="200" y="90">UNREGISTERED</text><text fill="#eeeeee" stroke="none" font-family="Arial" font-size="24px" font-style="normal" font-weight="normal" text-decoration="none" x="200" y="120">UNREGISTERED</text><text fill="#eeeeee" stroke="none" font-family="Arial" font-size="24px" font-style="normal" font-weight="normal" text-decoration="none" x="200" y="150">UNREGISTERED</text><text fill="#eeeeee" stroke="none" font-family="Arial" font-size="24px" font-style="normal" font-weight="normal" text-decoration="none" x="200" y="180">UNREGISTERED</text><text fill="#eeeeee" stroke="none" font-family="Arial" font-size="24px" font-style="normal" font-weight="normal" text-decoration="none" x="200" y="210">UNREGISTERED</text><text fill="#eeeeee" stroke="none" font-family="Arial" font-size="24px" font-style="normal" font-weight="normal" text-decoration="none" x="200" y="240">UNREGISTERED</text><text fill="#eeeeee" stroke="none" font-family="Arial" font-size="24px" font-style="normal" font-weight="normal" text-decoration="none" x="200" y="270">UNREGISTERED</text><text fill="#eeeeee" stroke="none" font-family="Arial" font-size="24px" font-style="normal" font-weight="normal" text-decoration="none" x="200" y="300">UNREGISTERED</text><text fill="#eeeeee" stroke="none" font-family="Arial" font-size="24px" font-style="normal" font-weight="normal" text-decoration="none" x="200" y="330">UNREGISTERED</text><text fill="#eeeeee" stroke="none" font-family="Arial" font-size="24px" font-style="normal" font-weight="normal" text-decoration="none" x="200" y="360">UNREGISTERED</text><text fill="#eeeeee" stroke="none" font-family="Arial" font-size="24px" font-style="normal" font-weight="normal" text-decoration="none" x="200" y="390">UNREGISTERED</text><text fill="#eeeeee" stroke="none" font-family="Arial" font-size="24px" font-style="normal" font-weight="normal" text-decoration="none" x="200" y="420">UNREGISTERED</text><text fill="#eeeeee" stroke="none" font-family="Arial" font-size="24px" font-style="normal" font-weight="normal" text-decoration="none" x="200" y="450">UNREGISTERED</text><text fill="#eeeeee" stroke="none" font-family="Arial" font-size="24px" font-style="normal" font-weight="normal" text-decoration="none" x="200" y="480">UNREGISTERED</text><text fill="#eeeeee" stroke="none" font-family="Arial" font-size="24px" font-style="normal" font-weight="normal" text-decoration="none" x="200" y="510">UNREGISTERED</text><text fill="#eeeeee" stroke="none" font-family="Arial" font-size="24px" font-style="normal" font-weight="normal" text-decoration="none" x="200" y="540">UNREGISTERED</text><text fill="#eeeeee" stroke="none" font-family="Arial" font-size="24px" font-style="normal" font-weight="normal" text-decoration="none" x="200" y="570">UNREGISTERED</text><text fill="#eeeeee" stroke="none" font-family="Arial" font-size="24px" font-style="normal" font-weight="normal" text-decoration="none" x="200" y="600">UNREGISTERED</text><text fill="#eeeeee" stroke="none" font-family="Arial" font-size="24px" font-style="normal" font-weight="normal" text-decoration="none" x="200" y="630">UNREGISTERED</text><text fill="#eeeeee" stroke="none" font-family="Arial" font-size="24px" font-style="normal" font-weight="normal" text-decoration="none" x="200" y="660">UNREGISTERED</text><text fill="#eeeeee" stroke="none" font-family="Arial" font-size="24px" font-style="normal" font-weight="normal" text-decoration="none" x="400" y="0">UNREGISTERED</text><text fill="#eeeeee" stroke="none" font-family="Arial" font-size="24px" font-style="normal" font-weight="normal" text-decoration="none" x="400" y="30">UNREGISTERED</text><text fill="#eeeeee" stroke="none" font-family="Arial" font-size="24px" font-style="normal" font-weight="normal" text-decoration="none" x="400" y="60">UNREGISTERED</text><text fill="#eeeeee" stroke="none" font-family="Arial" font-size="24px" font-style="normal" font-weight="normal" text-decoration="none" x="400" y="90">UNREGISTERED</text><text fill="#eeeeee" stroke="none" font-family="Arial" font-size="24px" font-style="normal" font-weight="normal" text-decoration="none" x="400" y="120">UNREGISTERED</text><text fill="#eeeeee" stroke="none" font-family="Arial" font-size="24px" font-style="normal" font-weight="normal" text-decoration="none" x="400" y="150">UNREGISTERED</text><text fill="#eeeeee" stroke="none" font-family="Arial" font-size="24px" font-style="normal" font-weight="normal" text-decoration="none" x="400" y="180">UNREGISTERED</text><text fill="#eeeeee" stroke="none" font-family="Arial" font-size="24px" font-style="normal" font-weight="normal" text-decoration="none" x="400" y="210">UNREGISTERED</text><text fill="#eeeeee" stroke="none" font-family="Arial" font-size="24px" font-style="normal" font-weight="normal" text-decoration="none" x="400" y="240">UNREGISTERED</text><text fill="#eeeeee" stroke="none" font-family="Arial" font-size="24px" font-style="normal" font-weight="normal" text-decoration="none" x="400" y="270">UNREGISTERED</text><text fill="#eeeeee" stroke="none" font-family="Arial" font-size="24px" font-style="normal" font-weight="normal" text-decoration="none" x="400" y="300">UNREGISTERED</text><text fill="#eeeeee" stroke="none" font-family="Arial" font-size="24px" font-style="normal" font-weight="normal" text-decoration="none" x="400" y="330">UNREGISTERED</text><text fill="#eeeeee" stroke="none" font-family="Arial" font-size="24px" font-style="normal" font-weight="normal" text-decoration="none" x="400" y="360">UNREGISTERED</text><text fill="#eeeeee" stroke="none" font-family="Arial" font-size="24px" font-style="normal" font-weight="normal" text-decoration="none" x="400" y="390">UNREGISTERED</text><text fill="#eeeeee" stroke="none" font-family="Arial" font-size="24px" font-style="normal" font-weight="normal" text-decoration="none" x="400" y="420">UNREGISTERED</text><text fill="#eeeeee" stroke="none" font-family="Arial" font-size="24px" font-style="normal" font-weight="normal" text-decoration="none" x="400" y="450">UNREGISTERED</text><text fill="#eeeeee" stroke="none" font-family="Arial" font-size="24px" font-style="normal" font-weight="normal" text-decoration="none" x="400" y="480">UNREGISTERED</text><text fill="#eeeeee" stroke="none" font-family="Arial" font-size="24px" font-style="normal" font-weight="normal" text-decoration="none" x="400" y="510">UNREGISTERED</text><text fill="#eeeeee" stroke="none" font-family="Arial" font-size="24px" font-style="normal" font-weight="normal" text-decoration="none" x="400" y="540">UNREGISTERED</text><text fill="#eeeeee" stroke="none" font-family="Arial" font-size="24px" font-style="normal" font-weight="normal" text-decoration="none" x="400" y="570">UNREGISTERED</text><text fill="#eeeeee" stroke="none" font-family="Arial" font-size="24px" font-style="normal" font-weight="normal" text-decoration="none" x="400" y="600">UNREGISTERED</text><text fill="#eeeeee" stroke="none" font-family="Arial" font-size="24px" font-style="normal" font-weight="normal" text-decoration="none" x="400" y="630">UNREGISTERED</text><text fill="#eeeeee" stroke="none" font-family="Arial" font-size="24px" font-style="normal" font-weight="normal" text-decoration="none" x="400" y="660">UNREGISTERED</text><text fill="#eeeeee" stroke="none" font-family="Arial" font-size="24px" font-style="normal" font-weight="normal" text-decoration="none" x="600" y="0">UNREGISTERED</text><text fill="#eeeeee" stroke="none" font-family="Arial" font-size="24px" font-style="normal" font-weight="normal" text-decoration="none" x="600" y="30">UNREGISTERED</text><text fill="#eeeeee" stroke="none" font-family="Arial" font-size="24px" font-style="normal" font-weight="normal" text-decoration="none" x="600" y="60">UNREGISTERED</text><text fill="#eeeeee" stroke="none" font-family="Arial" font-size="24px" font-style="normal" font-weight="normal" text-decoration="none" x="600" y="90">UNREGISTERED</text><text fill="#eeeeee" stroke="none" font-family="Arial" font-size="24px" font-style="normal" font-weight="normal" text-decoration="none" x="600" y="120">UNREGISTERED</text><text fill="#eeeeee" stroke="none" font-family="Arial" font-size="24px" font-style="normal" font-weight="normal" text-decoration="none" x="600" y="150">UNREGISTERED</text><text fill="#eeeeee" stroke="none" font-family="Arial" font-size="24px" font-style="normal" font-weight="normal" text-decoration="none" x="600" y="180">UNREGISTERED</text><text fill="#eeeeee" stroke="none" font-family="Arial" font-size="24px" font-style="normal" font-weight="normal" text-decoration="none" x="600" y="210">UNREGISTERED</text><text fill="#eeeeee" stroke="none" font-family="Arial" font-size="24px" font-style="normal" font-weight="normal" text-decoration="none" x="600" y="240">UNREGISTERED</text><text fill="#eeeeee" stroke="none" font-family="Arial" font-size="24px" font-style="normal" font-weight="normal" text-decoration="none" x="600" y="270">UNREGISTERED</text><text fill="#eeeeee" stroke="none" font-family="Arial" font-size="24px" font-style="normal" font-weight="normal" text-decoration="none" x="600" y="300">UNREGISTERED</text><text fill="#eeeeee" stroke="none" font-family="Arial" font-size="24px" font-style="normal" font-weight="normal" text-decoration="none" x="600" y="330">UNREGISTERED</text><text fill="#eeeeee" stroke="none" font-family="Arial" font-size="24px" font-style="normal" font-weight="normal" text-decoration="none" x="600" y="360">UNREGISTERED</text><text fill="#eeeeee" stroke="none" font-family="Arial" font-size="24px" font-style="normal" font-weight="normal" text-decoration="none" x="600" y="390">UNREGISTERED</text><text fill="#eeeeee" stroke="none" font-family="Arial" font-size="24px" font-style="normal" font-weight="normal" text-decoration="none" x="600" y="420">UNREGISTERED</text><text fill="#eeeeee" stroke="none" font-family="Arial" font-size="24px" font-style="normal" font-weight="normal" text-decoration="none" x="600" y="450">UNREGISTERED</text><text fill="#eeeeee" stroke="none" font-family="Arial" font-size="24px" font-style="normal" font-weight="normal" text-decoration="none" x="600" y="480">UNREGISTERED</text><text fill="#eeeeee" stroke="none" font-family="Arial" font-size="24px" font-style="normal" font-weight="normal" text-decoration="none" x="600" y="510">UNREGISTERED</text><text fill="#eeeeee" stroke="none" font-family="Arial" font-size="24px" font-style="normal" font-weight="normal" text-decoration="none" x="600" y="540">UNREGISTERED</text><text fill="#eeeeee" stroke="none" font-family="Arial" font-size="24px" font-style="normal" font-weight="normal" text-decoration="none" x="600" y="570">UNREGISTERED</text><text fill="#eeeeee" stroke="none" font-family="Arial" font-size="24px" font-style="normal" font-weight="normal" text-decoration="none" x="600" y="600">UNREGISTERED</text><text fill="#eeeeee" stroke="none" font-family="Arial" font-size="24px" font-style="normal" font-weight="normal" text-decoration="none" x="600" y="630">UNREGISTERED</text><text fill="#eeeeee" stroke="none" font-family="Arial" font-size="24px" font-style="normal" font-weight="normal" text-decoration="none" x="600" y="660">UNREGISTERED</text><text fill="#eeeeee" stroke="none" font-family="Arial" font-size="24px" font-style="normal" font-weight="normal" text-decoration="none" x="800" y="0">UNREGISTERED</text><text fill="#eeeeee" stroke="none" font-family="Arial" font-size="24px" font-style="normal" font-weight="normal" text-decoration="none" x="800" y="30">UNREGISTERED</text><text fill="#eeeeee" stroke="none" font-family="Arial" font-size="24px" font-style="normal" font-weight="normal" text-decoration="none" x="800" y="60">UNREGISTERED</text><text fill="#eeeeee" stroke="none" font-family="Arial" font-size="24px" font-style="normal" font-weight="normal" text-decoration="none" x="800" y="90">UNREGISTERED</text><text fill="#eeeeee" stroke="none" font-family="Arial" font-size="24px" font-style="normal" font-weight="normal" text-decoration="none" x="800" y="120">UNREGISTERED</text><text fill="#eeeeee" stroke="none" font-family="Arial" font-size="24px" font-style="normal" font-weight="normal" text-decoration="none" x="800" y="150">UNREGISTERED</text><text fill="#eeeeee" stroke="none" font-family="Arial" font-size="24px" font-style="normal" font-weight="normal" text-decoration="none" x="800" y="180">UNREGISTERED</text><text fill="#eeeeee" stroke="none" font-family="Arial" font-size="24px" font-style="normal" font-weight="normal" text-decoration="none" x="800" y="210">UNREGISTERED</text><text fill="#eeeeee" stroke="none" font-family="Arial" font-size="24px" font-style="normal" font-weight="normal" text-decoration="none" x="800" y="240">UNREGISTERED</text><text fill="#eeeeee" stroke="none" font-family="Arial" font-size="24px" font-style="normal" font-weight="normal" text-decoration="none" x="800" y="270">UNREGISTERED</text><text fill="#eeeeee" stroke="none" font-family="Arial" font-size="24px" font-style="normal" font-weight="normal" text-decoration="none" x="800" y="300">UNREGISTERED</text><text fill="#eeeeee" stroke="none" font-family="Arial" font-size="24px" font-style="normal" font-weight="normal" text-decoration="none" x="800" y="330">UNREGISTERED</text><text fill="#eeeeee" stroke="none" font-family="Arial" font-size="24px" font-style="normal" font-weight="normal" text-decoration="none" x="800" y="360">UNREGISTERED</text><text fill="#eeeeee" stroke="none" font-family="Arial" font-size="24px" font-style="normal" font-weight="normal" text-decoration="none" x="800" y="390">UNREGISTERED</text><text fill="#eeeeee" stroke="none" font-family="Arial" font-size="24px" font-style="normal" font-weight="normal" text-decoration="none" x="800" y="420">UNREGISTERED</text><text fill="#eeeeee" stroke="none" font-family="Arial" font-size="24px" font-style="normal" font-weight="normal" text-decoration="none" x="800" y="450">UNREGISTERED</text><text fill="#eeeeee" stroke="none" font-family="Arial" font-size="24px" font-style="normal" font-weight="normal" text-decoration="none" x="800" y="480">UNREGISTERED</text><text fill="#eeeeee" stroke="none" font-family="Arial" font-size="24px" font-style="normal" font-weight="normal" text-decoration="none" x="800" y="510">UNREGISTERED</text><text fill="#eeeeee" stroke="none" font-family="Arial" font-size="24px" font-style="normal" font-weight="normal" text-decoration="none" x="800" y="540">UNREGISTERED</text><text fill="#eeeeee" stroke="none" font-family="Arial" font-size="24px" font-style="normal" font-weight="normal" text-decoration="none" x="800" y="570">UNREGISTERED</text><text fill="#eeeeee" stroke="none" font-family="Arial" font-size="24px" font-style="normal" font-weight="normal" text-decoration="none" x="800" y="600">UNREGISTERED</text><text fill="#eeeeee" stroke="none" font-family="Arial" font-size="24px" font-style="normal" font-weight="normal" text-decoration="none" x="800" y="630">UNREGISTERED</text><text fill="#eeeeee" stroke="none" font-family="Arial" font-size="24px" font-style="normal" font-weight="normal" text-decoration="none" x="800" y="660">UNREGISTERED</text><g transform="translate(-286,-166) scale(1,1)"><rect fill="#C0C0C0" stroke="none" x="369" y="183" width="582" height="648" opacity="0.2"/></g><g transform="translate(-286,-166) scale(1,1)"><rect fill="#ffffd8" stroke="none" x="362" y="176" width="582" height="648"/></g><g transform="translate(-286,-166) scale(1,1)"><path fill="none" stroke="#000000" d="M 362 176 L 944 176 L 944 824 L 362 824 L 362 176 Z Z" stroke-miterlimit="10"/></g><g transform="translate(-286,-166) scale(1,1)"><rect fill="#ffffd8" stroke="none" x="352" y="183" width="20" height="10"/></g><g transform="translate(-286,-166) scale(1,1)"><path fill="none" stroke="#000000" d="M 352 183 L 372 183 L 372 193 L 352 193 L 352 183 Z Z" stroke-miterlimit="10"/></g><g transform="translate(-286,-166) scale(1,1)"><rect fill="#ffffd8" stroke="none" x="352" y="203" width="20" height="10"/></g><g transform="translate(-286,-166) scale(1,1)"><path fill="none" stroke="#000000" d="M 352 203 L 372 203 L 372 213 L 352 213 L 352 203 Z Z" stroke-miterlimit="10"/></g><g transform="translate(-286,-166) scale(1,1)"><g><path fill="none" stroke="none"/><text fill="#000000" stroke="none" font-family="Arial" font-size="13px" font-style="normal" font-weight="normal" text-decoration="none" x="618.609619140625" y="193.5">«component»</text></g></g><g transform="translate(-286,-166) scale(1,1)"><g><path fill="none" stroke="none"/><text fill="#000000" stroke="none" font-family="Arial" font-size="13px" font-style="normal" font-weight="bold" text-decoration="none" x="642.825927734375" y="208.5">Hotel</text><path fill="none" stroke="#000000" d="M 674.25 208.5 L 641.75 208.5" stroke-miterlimit="10"/></g></g><g transform="translate(-286,-166) scale(1,1)"><rect fill="#C0C0C0" stroke="none" x="521" y="271" width="151.18359375" height="87" opacity="0.2"/></g><g transform="translate(-286,-166) scale(1,1)"><rect fill="#ffffff" stroke="none" x="514" y="264" width="151.18359375" height="87"/></g><g transform="translate(-286,-166) scale(1,1)"><path fill="none" stroke="#000000" d="M 514 264 L 665.18359375 264 L 665.18359375 351 L 514 351 L 514 264 Z Z" stroke-miterlimit="10"/></g><g transform="translate(-286,-166) scale(1,1)"><rect fill="#ffffff" stroke="none" x="504" y="271" width="20" height="10"/></g><g transform="translate(-286,-166) scale(1,1)"><path fill="none" stroke="#000000" d="M 504 271 L 524 271 L 524 281 L 504 281 L 504 271 Z Z" stroke-miterlimit="10"/></g><g transform="translate(-286,-166) scale(1,1)"><rect fill="#ffffff" stroke="none" x="504" y="291" width="20" height="10"/></g><g transform="translate(-286,-166) scale(1,1)"><path fill="none" stroke="#000000" d="M 504 291 L 524 291 L 524 301 L 504 301 L 504 291 Z Z" stroke-miterlimit="10"/></g><g transform="translate(-286,-166) scale(1,1)"><g><path fill="none" stroke="none"/><text fill="#000000" stroke="none" font-family="Arial" font-size="13px" font-style="normal" font-weight="normal" text-decoration="none" x="555.201416015625" y="281.5">«component»</text></g></g><g transform="translate(-286,-166) scale(1,1)"><g><path fill="none" stroke="none"/><text fill="#000000" stroke="none" font-family="Arial" font-size="13px" font-style="normal" font-weight="bold" text-decoration="none" x="579.411376953125" y="296.5">Shop</text><path fill="none" stroke="#000000" d="M 610.838623046875 296.5 L 578.344970703125 296.5" stroke-miterlimit="10"/></g></g><g transform="translate(-286,-166) scale(1,1)"><rect fill="#C0C0C0" stroke="none" x="407" y="287" width="41" height="41" opacity="0.2"/></g><g transform="translate(-286,-166) scale(1,1)"><rect fill="#ffffff" stroke="none" x="400" y="280" width="41" height="41"/></g><g transform="translate(-286,-166) scale(1,1)"><path fill="none" stroke="#000000" d="M 400 280 L 441 280 L 441 321 L 400 321 L 400 280 Z Z" stroke-miterlimit="10"/></g><g transform="translate(-286,-166) scale(1,1)"><rect fill="#ffffff" stroke="none" x="400" y="280" width="41" height="41"/></g><g transform="translate(-286,-166) scale(1,1)"><path fill="none" stroke="#000000" d="M 400 280 L 441 280 L 441 321 L 400 321 L 400 280 Z Z" stroke-miterlimit="10"/></g><g transform="translate(-286,-166) scale(1,1)"><g><path fill="none" stroke="none"/><text fill="#000000" stroke="none" font-family="Arial" font-size="13px" font-style="normal" font-weight="bold" text-decoration="none" x="420.5" y="299.5"></text><path fill="none" stroke="#000000" d="M 420.5 299.5 L 420.5 299.5" stroke-miterlimit="10"/></g></g><g transform="translate(-286,-166) scale(1,1)"><path fill="none" stroke="#000000" d="M 442 301 L 503 304" stroke-miterlimit="10" stroke-dasharray="3"/></g><g transform="translate(-286,-166) scale(1,1)"><path fill="none" stroke="#000000" d="M 492.6428175968661 307.70523584515394 L 503 304 L 493.05636869675425 299.29636348076184" stroke-miterlimit="10"/></g><g transform="translate(-286,-166) scale(1,1)"><rect fill="#C0C0C0" stroke="none" x="407" y="415" width="41" height="41" opacity="0.2"/></g><g transform="translate(-286,-166) scale(1,1)"><rect fill="#ffffff" stroke="none" x="400" y="408" width="41" height="41"/></g><g transform="translate(-286,-166) scale(1,1)"><path fill="none" stroke="#000000" d="M 400 408 L 441 408 L 441 449 L 400 449 L 400 408 Z Z" stroke-miterlimit="10"/></g><g transform="translate(-286,-166) scale(1,1)"><rect fill="#ffffff" stroke="none" x="400" y="408" width="41" height="41"/></g><g transform="translate(-286,-166) scale(1,1)"><path fill="none" stroke="#000000" d="M 400 408 L 441 408 L 441 449 L 400 449 L 400 408 Z Z" stroke-miterlimit="10"/></g><g transform="translate(-286,-166) scale(1,1)"><g><path fill="none" stroke="none"/><text fill="#000000" stroke="none" font-family="Arial" font-size="13px" font-style="normal" font-weight="bold" text-decoration="none" x="420.5" y="427.5"></text><path fill="none" stroke="#000000" d="M 420.5 427.5 L 420.5 427.5" stroke-miterlimit="10"/></g></g><g transform="translate(-286,-166) scale(1,1)"><g><path fill="none" stroke="none"/><text fill="#000000" stroke="none" font-family="Arial" font-size="13px" font-style="normal" font-weight="normal" text-decoration="none" x="341" y="434">User</text></g></g><g transform="translate(-286,-166) scale(1,1)"><g><path fill="none" stroke="none"/><text fill="#000000" stroke="none" font-family="Arial" font-size="13px" font-style="normal" font-weight="normal" text-decoration="none" x="301" y="306">Unauthenticated</text><text fill="#000000" stroke="none" font-family="Arial" font-size="13px" font-style="normal" font-weight="normal" text-decoration="none" x="301" y="319">user</text></g></g><g transform="translate(-286,-166) scale(1,1)"><path fill="none" stroke="#000000" d="M 428 407 L 456 336 L 503 325" stroke-miterlimit="10" stroke-dasharray="3"/></g><g transform="translate(-286,-166) scale(1,1)"><path fill="none" stroke="#000000" d="M 494.0640073379272 331.41467342453075 L 503 325 L 492.14543991443225 323.21715806959793" stroke-miterlimit="10"/></g><g transform="translate(-286,-166) scale(1,1)"><rect fill="#C0C0C0" stroke="none" x="521" y="391" width="150" height="79" opacity="0.2"/></g><g transform="translate(-286,-166) scale(1,1)"><rect fill="#ffffff" stroke="none" x="514" y="384" width="150" height="79"/></g><g transform="translate(-286,-166) scale(1,1)"><path fill="none" stroke="#000000" d="M 514 384 L 664 384 L 664 463 L 514 463 L 514 384 Z Z" stroke-miterlimit="10"/></g><g transform="translate(-286,-166) scale(1,1)"><rect fill="#ffffff" stroke="none" x="504" y="391" width="20" height="10"/></g><g transform="translate(-286,-166) scale(1,1)"><path fill="none" stroke="#000000" d="M 504 391 L 524 391 L 524 401 L 504 401 L 504 391 Z Z" stroke-miterlimit="10"/></g><g transform="translate(-286,-166) scale(1,1)"><rect fill="#ffffff" stroke="none" x="504" y="411" width="20" height="10"/></g><g transform="translate(-286,-166) scale(1,1)"><path fill="none" stroke="#000000" d="M 504 411 L 524 411 L 524 421 L 504 421 L 504 411 Z Z" stroke-miterlimit="10"/></g><g transform="translate(-286,-166) scale(1,1)"><g><path fill="none" stroke="none"/><text fill="#000000" stroke="none" font-family="Arial" font-size="13px" font-style="normal" font-weight="normal" text-decoration="none" x="554.609619140625" y="401.5">«component»</text></g></g><g transform="translate(-286,-166) scale(1,1)"><g><path fill="none" stroke="none"/><text fill="#000000" stroke="none" font-family="Arial" font-size="13px" font-style="normal" font-weight="bold" text-decoration="none" x="571.595947265625" y="416.5">Catalog</text><path fill="none" stroke="#000000" d="M 617.83544921875 416.5 L 570.16455078125 416.5" stroke-miterlimit="10"/></g></g><g transform="translate(-286,-166) scale(1,1)"><path fill="none" stroke="#000000" d="M 442 427 L 503 425" stroke-miterlimit="10" stroke-dasharray="3"/></g><g transform="translate(-286,-166) scale(1,1)"><path fill="none" stroke="#000000" d="M 492.98072593033794 429.54028051082724 L 503 425 L 492.7048402250804 421.1257665004705" stroke-miterlimit="10"/></g><g transform="translate(-286,-166) scale(1,1)"><g><path fill="none" stroke="none"/><text fill="#000000" stroke="none" font-family="Arial" font-size="13px" font-style="normal" font-weight="normal" text-decoration="none" x="349" y="562">Guest</text></g></g><g transform="translate(-286,-166) scale(1,1)"><rect fill="#C0C0C0" stroke="none" x="407" y="543" width="41" height="41" opacity="0.2"/></g><g transform="translate(-286,-166) scale(1,1)"><rect fill="#ffffff" stroke="none" x="400" y="536" width="41" height="41"/></g><g transform="translate(-286,-166) scale(1,1)"><path fill="none" stroke="#000000" d="M 400 536 L 441 536 L 441 577 L 400 577 L 400 536 Z Z" stroke-miterlimit="10"/></g><g transform="translate(-286,-166) scale(1,1)"><rect fill="#ffffff" stroke="none" x="400" y="536" width="41" height="41"/></g><g transform="translate(-286,-166) scale(1,1)"><path fill="none" stroke="#000000" d="M 400 536 L 441 536 L 441 577 L 400 577 L 400 536 Z Z" stroke-miterlimit="10"/></g><g transform="translate(-286,-166) scale(1,1)"><g><path fill="none" stroke="none"/><text fill="#000000" stroke="none" font-family="Arial" font-size="13px" font-style="normal" font-weight="bold" text-decoration="none" x="420.5" y="555.5"></text><path fill="none" stroke="#000000" d="M 420.5 555.5 L 420.5 555.5" stroke-miterlimit="10"/></g></g><g transform="translate(-286,-166) scale(1,1)"><rect fill="#C0C0C0" stroke="none" x="521" y="495" width="151.18359375" height="79" opacity="0.2"/></g><g transform="translate(-286,-166) scale(1,1)"><rect fill="#ffffff" stroke="none" x="514" y="488" width="151.18359375" height="79"/></g><g transform="translate(-286,-166) scale(1,1)"><path fill="none" stroke="#000000" d="M 514 488 L 665.18359375 488 L 665.18359375 567 L 514 567 L 514 488 Z Z" stroke-miterlimit="10"/></g><g transform="translate(-286,-166) scale(1,1)"><rect fill="#ffffff" stroke="none" x="504" y="495" width="20" height="10"/></g><g transform="translate(-286,-166) scale(1,1)"><path fill="none" stroke="#000000" d="M 504 495 L 524 495 L 524 505 L 504 505 L 504 495 Z Z" stroke-miterlimit="10"/></g><g transform="translate(-286,-166) scale(1,1)"><rect fill="#ffffff" stroke="none" x="504" y="515" width="20" height="10"/></g><g transform="translate(-286,-166) scale(1,1)"><path fill="none" stroke="#000000" d="M 504 515 L 524 515 L 524 525 L 504 525 L 504 515 Z Z" stroke-miterlimit="10"/></g><g transform="translate(-286,-166) scale(1,1)"><g><path fill="none" stroke="none"/><text fill="#000000" stroke="none" font-family="Arial" font-size="13px" font-style="normal" font-weight="normal" text-decoration="none" x="555.201416015625" y="505.5">«component»</text></g></g><g transform="translate(-286,-166) scale(1,1)"><g><path fill="none" stroke="none"/><text fill="#000000" stroke="none" font-family="Arial" font-size="13px" font-style="normal" font-weight="bold" text-decoration="none" x="564.9736328125" y="520.5">RoomCart</text><path fill="none" stroke="#000000" d="M 626.009521484375 520.5 L 563.174072265625 520.5" stroke-miterlimit="10"/></g></g><g transform="translate(-286,-166) scale(1,1)"><path fill="none" stroke="#000000" d="M 442 552 L 503 541" stroke-miterlimit="10" stroke-dasharray="3"/></g><g transform="translate(-286,-166) scale(1,1)"><path fill="none" stroke="#000000" d="M 493.7456813931875 546.9462246109279 L 503 541 L 492.2515928130166 538.6608243027075" stroke-miterlimit="10"/></g><g transform="translate(-286,-166) scale(1,1)"><rect fill="#C0C0C0" stroke="none" x="521" y="591" width="150" height="71" opacity="0.2"/></g><g transform="translate(-286,-166) scale(1,1)"><rect fill="#ffffff" stroke="none" x="514" y="584" width="150" height="71"/></g><g transform="translate(-286,-166) scale(1,1)"><path fill="none" stroke="#000000" d="M 514 584 L 664 584 L 664 655 L 514 655 L 514 584 Z Z" stroke-miterlimit="10"/></g><g transform="translate(-286,-166) scale(1,1)"><rect fill="#ffffff" stroke="none" x="504" y="591" width="20" height="10"/></g><g transform="translate(-286,-166) scale(1,1)"><path fill="none" stroke="#000000" d="M 504 591 L 524 591 L 524 601 L 504 601 L 504 591 Z Z" stroke-miterlimit="10"/></g><g transform="translate(-286,-166) scale(1,1)"><rect fill="#ffffff" stroke="none" x="504" y="611" width="20" height="10"/></g><g transform="translate(-286,-166) scale(1,1)"><path fill="none" stroke="#000000" d="M 504 611 L 524 611 L 524 621 L 504 621 L 504 611 Z Z" stroke-miterlimit="10"/></g><g transform="translate(-286,-166) scale(1,1)"><g><path fill="none" stroke="none"/><text fill="#000000" stroke="none" font-family="Arial" font-size="13px" font-style="normal" font-weight="normal" text-decoration="none" x="554.609619140625" y="601.5">«component»</text></g></g><g transform="translate(-286,-166) scale(1,1)"><g><path fill="none" stroke="none"/><text fill="#000000" stroke="none" font-family="Arial" font-size="13px" font-style="normal" font-weight="bold" text-decoration="none" x="570.510498046875" y="616.5">Booking</text><path fill="none" stroke="#000000" d="M 619.996826171875 616.5 L 568.003173828125 616.5" stroke-miterlimit="10"/></g></g><g transform="translate(-286,-166) scale(1,1)"><path fill="none" stroke="#000000" d="M 442 578 L 472 608 L 503 611" stroke-miterlimit="10" stroke-dasharray="3"/></g><g transform="translate(-286,-166) scale(1,1)"><path fill="none" stroke="#000000" d="M 492.47910303410777 614.2110320822252 L 503 611 L 493.2900598513036 605.8311449712016" stroke-miterlimit="10"/></g><g transform="translate(-286,-166) scale(1,1)"><rect fill="#C0C0C0" stroke="none" x="521" y="679" width="151.18359375" height="63" opacity="0.2"/></g><g transform="translate(-286,-166) scale(1,1)"><rect fill="#ffffff" stroke="none" x="514" y="672" width="151.18359375" height="63"/></g><g transform="translate(-286,-166) scale(1,1)"><path fill="none" stroke="#000000" d="M 514 672 L 665.18359375 672 L 665.18359375 735 L 514 735 L 514 672 Z Z" stroke-miterlimit="10"/></g><g transform="translate(-286,-166) scale(1,1)"><rect fill="#ffffff" stroke="none" x="504" y="679" width="20" height="10"/></g><g transform="translate(-286,-166) scale(1,1)"><path fill="none" stroke="#000000" d="M 504 679 L 524 679 L 524 689 L 504 689 L 504 679 Z Z" stroke-miterlimit="10"/></g><g transform="translate(-286,-166) scale(1,1)"><rect fill="#ffffff" stroke="none" x="504" y="699" width="20" height="10"/></g><g transform="translate(-286,-166) scale(1,1)"><path fill="none" stroke="#000000" d="M 504 699 L 524 699 L 524 709 L 504 709 L 504 699 Z Z" stroke-miterlimit="10"/></g><g transform="translate(-286,-166) scale(1,1)"><g><path fill="none" stroke="none"/><text fill="#000000" stroke="none" font-family="Arial" font-size="13px" font-style="normal" font-weight="normal" text-decoration="none" x="555.201416015625" y="689.5">«component»</text></g></g><g transform="translate(-286,-166) scale(1,1)"><g><path fill="none" stroke="none"/><text fill="#000000" stroke="none" font-family="Arial" font-size="13px" font-style="normal" font-weight="bold" text-decoration="none" x="555.5791015625" y="704.5">RoomService</text><path fill="none" stroke="#000000" d="M 636.13720703125 704.5 L 553.04638671875 704.5" stroke-miterlimit="10"/></g></g><g transform="translate(-286,-166) scale(1,1)"><path fill="none" stroke="#000000" d="M 424 578 L 448 704 L 503 704" stroke-miterlimit="10" stroke-dasharray="3"/></g><g transform="translate(-286,-166) scale(1,1)"><path fill="none" stroke="#000000" d="M 492.83732514237585 708.209517756016 L 503 704 L 492.83732514237585 699.790482243984" stroke-miterlimit="10"/></g><g transform="translate(-286,-166) scale(1,1)"><rect fill="#C0C0C0" stroke="none" x="983" y="287" width="41" height="41" opacity="0.2"/></g><g transform="translate(-286,-166) scale(1,1)"><rect fill="#ffffff" stroke="none" x="976" y="280" width="41" height="41"/></g><g transform="translate(-286,-166) scale(1,1)"><path fill="none" stroke="#000000" d="M 976 280 L 1017 280 L 1017 321 L 976 321 L 976 280 Z Z" stroke-miterlimit="10"/></g><g transform="translate(-286,-166) scale(1,1)"><rect fill="#ffffff" stroke="none" x="976" y="280" width="41" height="41"/></g><g transform="translate(-286,-166) scale(1,1)"><path fill="none" stroke="#000000" d="M 976 280 L 1017 280 L 1017 321 L 976 321 L 976 280 Z Z" stroke-miterlimit="10"/></g><g transform="translate(-286,-166) scale(1,1)"><g><path fill="none" stroke="none"/><text fill="#000000" stroke="none" font-family="Arial" font-size="13px" font-style="normal" font-weight="bold" text-decoration="none" x="996.5" y="299.5"></text><path fill="none" stroke="#000000" d="M 996.5 299.5 L 996.5 299.5" stroke-miterlimit="10"/></g></g><g transform="translate(-286,-166) scale(1,1)"><g><path fill="none" stroke="none"/><text fill="#000000" stroke="none" font-family="Arial" font-size="13px" font-style="normal" font-weight="normal" text-decoration="none" x="1021" y="306">Staff</text></g></g><g transform="translate(-286,-166) scale(1,1)"><rect fill="#C0C0C0" stroke="none" x="761" y="271" width="151.18359375" height="79" opacity="0.2"/></g><g transform="translate(-286,-166) scale(1,1)"><rect fill="#ffffff" stroke="none" x="754" y="264" width="151.18359375" height="79"/></g><g transform="translate(-286,-166) scale(1,1)"><path fill="none" stroke="#000000" d="M 754 264 L 905.18359375 264 L 905.18359375 343 L 754 343 L 754 264 Z Z" stroke-miterlimit="10"/></g><g transform="translate(-286,-166) scale(1,1)"><rect fill="#ffffff" stroke="none" x="744" y="271" width="20" height="10"/></g><g transform="translate(-286,-166) scale(1,1)"><path fill="none" stroke="#000000" d="M 744 271 L 764 271 L 764 281 L 744 281 L 744 271 Z Z" stroke-miterlimit="10"/></g><g transform="translate(-286,-166) scale(1,1)"><rect fill="#ffffff" stroke="none" x="744" y="291" width="20" height="10"/></g><g transform="translate(-286,-166) scale(1,1)"><path fill="none" stroke="#000000" d="M 744 291 L 764 291 L 764 301 L 744 301 L 744 291 Z Z" stroke-miterlimit="10"/></g><g transform="translate(-286,-166) scale(1,1)"><g><path fill="none" stroke="none"/><text fill="#000000" stroke="none" font-family="Arial" font-size="13px" font-style="normal" font-weight="normal" text-decoration="none" x="795.201416015625" y="281.5">«component»</text></g></g><g transform="translate(-286,-166) scale(1,1)"><g><path fill="none" stroke="none"/><text fill="#000000" stroke="none" font-family="Arial" font-size="13px" font-style="normal" font-weight="bold" text-decoration="none" x="821.341064453125" y="296.5">Staff</text><path fill="none" stroke="#000000" d="M 849.035888671875 296.5 L 820.147705078125 296.5" stroke-miterlimit="10"/></g></g><g transform="translate(-286,-166) scale(1,1)"><path fill="none" stroke="#000000" d="M 975 300 L 906 302" stroke-miterlimit="10" stroke-dasharray="3"/></g><g transform="translate(-286,-166) scale(1,1)"><path fill="none" stroke="#000000" d="M 916.0364446275785 297.49780284332724 L 906 302 L 916.2803721948861 305.9133039154419" stroke-miterlimit="10"/></g><g transform="translate(-286,-166) scale(1,1)"><rect fill="#C0C0C0" stroke="none" x="983" y="559" width="41" height="41" opacity="0.2"/></g><g transform="translate(-286,-166) scale(1,1)"><rect fill="#ffffff" stroke="none" x="976" y="552" width="41" height="41"/></g><g transform="translate(-286,-166) scale(1,1)"><path fill="none" stroke="#000000" d="M 976 552 L 1017 552 L 1017 593 L 976 593 L 976 552 Z Z" stroke-miterlimit="10"/></g><g transform="translate(-286,-166) scale(1,1)"><rect fill="#ffffff" stroke="none" x="976" y="552" width="41" height="41"/></g><g transform="translate(-286,-166) scale(1,1)"><path fill="none" stroke="#000000" d="M 976 552 L 1017 552 L 1017 593 L 976 593 L 976 552 Z Z" stroke-miterlimit="10"/></g><g transform="translate(-286,-166) scale(1,1)"><g><path fill="none" stroke="none"/><text fill="#000000" stroke="none" font-family="Arial" font-size="13px" font-style="normal" font-weight="bold" text-decoration="none" x="996.5" y="571.5"></text><path fill="none" stroke="#000000" d="M 996.5 571.5 L 996.5 571.5" stroke-miterlimit="10"/></g></g><g transform="translate(-286,-166) scale(1,1)"><g><path fill="none" stroke="none"/><text fill="#000000" stroke="none" font-family="Arial" font-size="13px" font-style="normal" font-weight="normal" text-decoration="none" x="1021" y="578">Manager</text></g></g><g transform="translate(-286,-166) scale(1,1)"><path fill="none" stroke="#000000" d="M 800 535 L 712 432 L 788 344" stroke-miterlimit="10" stroke-dasharray="3"/></g><g transform="translate(-286,-166) scale(1,1)"><path fill="none" stroke="#000000" d="M 784.5433336665559 354.44277060263386 L 788 344 L 778.1716138878245 348.9399217028204" stroke-miterlimit="10"/></g><g transform="translate(-286,-166) scale(1,1)"><rect fill="#C0C0C0" stroke="none" x="769" y="399" width="151.18359375" height="79" opacity="0.2"/></g><g transform="translate(-286,-166) scale(1,1)"><rect fill="#ffffff" stroke="none" x="762" y="392" width="151.18359375" height="79"/></g><g transform="translate(-286,-166) scale(1,1)"><path fill="none" stroke="#000000" d="M 762 392 L 913.18359375 392 L 913.18359375 471 L 762 471 L 762 392 Z Z" stroke-miterlimit="10"/></g><g transform="translate(-286,-166) scale(1,1)"><rect fill="#ffffff" stroke="none" x="752" y="399" width="20" height="10"/></g><g transform="translate(-286,-166) scale(1,1)"><path fill="none" stroke="#000000" d="M 752 399 L 772 399 L 772 409 L 752 409 L 752 399 Z Z" stroke-miterlimit="10"/></g><g transform="translate(-286,-166) scale(1,1)"><rect fill="#ffffff" stroke="none" x="752" y="419" width="20" height="10"/></g><g transform="translate(-286,-166) scale(1,1)"><path fill="none" stroke="#000000" d="M 752 419 L 772 419 L 772 429 L 752 429 L 752 419 Z Z" stroke-miterlimit="10"/></g><g transform="translate(-286,-166) scale(1,1)"><g><path fill="none" stroke="none"/><text fill="#000000" stroke="none" font-family="Arial" font-size="13px" font-style="normal" font-weight="normal" text-decoration="none" x="803.201416015625" y="409.5">«component»</text></g></g><g transform="translate(-286,-166) scale(1,1)"><g><path fill="none" stroke="none"/><text fill="#000000" stroke="none" font-family="Arial" font-size="13px" font-style="normal" font-weight="bold" text-decoration="none" x="822" y="424.5">Guests</text><path fill="none" stroke="#000000" d="M 864.627685546875 424.5 L 820.555908203125 424.5" stroke-miterlimit="10"/></g></g><g transform="translate(-286,-166) scale(1,1)"><rect fill="#C0C0C0" stroke="none" x="769" y="543" width="151.18359375" height="72" opacity="0.2"/></g><g transform="translate(-286,-166) scale(1,1)"><rect fill="#ffffff" stroke="none" x="762" y="536" width="151.18359375" height="72"/></g><g transform="translate(-286,-166) scale(1,1)"><path fill="none" stroke="#000000" d="M 762 536 L 913.18359375 536 L 913.18359375 608 L 762 608 L 762 536 Z Z" stroke-miterlimit="10"/></g><g transform="translate(-286,-166) scale(1,1)"><rect fill="#ffffff" stroke="none" x="752" y="543" width="20" height="10"/></g><g transform="translate(-286,-166) scale(1,1)"><path fill="none" stroke="#000000" d="M 752 543 L 772 543 L 772 553 L 752 553 L 752 543 Z Z" stroke-miterlimit="10"/></g><g transform="translate(-286,-166) scale(1,1)"><rect fill="#ffffff" stroke="none" x="752" y="563" width="20" height="10"/></g><g transform="translate(-286,-166) scale(1,1)"><path fill="none" stroke="#000000" d="M 752 563 L 772 563 L 772 573 L 752 573 L 752 563 Z Z" stroke-miterlimit="10"/></g><g transform="translate(-286,-166) scale(1,1)"><g><path fill="none" stroke="none"/><text fill="#000000" stroke="none" font-family="Arial" font-size="13px" font-style="normal" font-weight="normal" text-decoration="none" x="803.201416015625" y="553.5">«component»</text></g></g><g transform="translate(-286,-166) scale(1,1)"><g><path fill="none" stroke="none"/><text fill="#000000" stroke="none" font-family="Arial" font-size="13px" font-style="normal" font-weight="bold" text-decoration="none" x="804.65185546875" y="568.5">Management</text><path fill="none" stroke="#000000" d="M 882.32177734375 568.5 L 802.86181640625 568.5" stroke-miterlimit="10"/></g></g><g transform="translate(-286,-166) scale(1,1)"><path fill="none" stroke="#000000" d="M 751 602 L 712 616 L 665 617" stroke-miterlimit="10" stroke-dasharray="3"/></g><g transform="translate(-286,-166) scale(1,1)"><path fill="none" stroke="#000000" d="M 675.0708314078773 612.5752565323953 L 665 617 L 675.2499192916507 620.9923870697424" stroke-miterlimit="10"/></g><g transform="translate(-286,-166) scale(1,1)"><path fill="none" stroke="#000000" d="M 975 572 L 914 572" stroke-miterlimit="10" stroke-dasharray="3"/></g><g transform="translate(-286,-166) scale(1,1)"><path fill="none" stroke="#000000" d="M 924.1626748576241 567.790482243984 L 914 572 L 924.1626748576241 576.209517756016" stroke-miterlimit="10"/></g><g transform="translate(-286,-166) scale(1,1)"><path fill="none" stroke="#000000" d="M 832 535 L 832 472" stroke-miterlimit="10" stroke-dasharray="3"/></g><g transform="translate(-286,-166) scale(1,1)"><path fill="none" stroke="#000000" d="M 836.209517756016 482.16267485762415 L 832 472 L 827.790482243984 482.16267485762415" stroke-miterlimit="10"/></g><g transform="translate(-286,-166) scale(1,1)"><path fill="none" stroke="#000000" d="M 813 609 L 760 712 L 666 707" stroke-miterlimit="10" stroke-dasharray="3"/></g><g transform="translate(-286,-166) scale(1,1)"><path fill="none" stroke="#000000" d="M 676.3719229205984 703.3362294109533 L 666 707 L 675.9247340593262 711.7433800028725" stroke-miterlimit="10"/></g><g transform="translate(-286,-166) scale(1,1)"><path fill="none" stroke="#000000" d="M 770 535 L 652 464" stroke-miterlimit="10" stroke-dasharray="3"/></g><g transform="translate(-286,-166) scale(1,1)"><path fill="none" stroke="#000000" d="M 662.8781761634899 465.6325695562764 L 652 464 L 658.5376311281439 472.8464331361473" stroke-miterlimit="10"/></g></g></svg>